<svg width="32" height="32" viewBox="0 0 48 48" fill="none" xmlns="http://www.w3.org/2000/svg">
  <path d="M19 20C21.7614 20 24 17.7614 24 15C24 12.2386 21.7614 10 19 10C16.2386 10 14 12.2386 14 15C14 17.7614 16.2386 20 19 20Z" stroke="white" stroke-width="4" stroke-linejoin="round"/>
  <path d="M33 38H5V37C5 32.5817 8.58172 29 13 29H25C29.4183 29 33 32.5817 33 37V38Z" stroke="white" stroke-width="4" stroke-linejoin="round"/>
  <path d="M36 20C38.2091 20 40 18.2091 40 16C40 13.7909 38.2091 12 36 12C33.7909 12 32 13.7909 32 16C32 18.2091 33.7909 20 36 20Z" stroke="white" stroke-width="4" stroke-linejoin="round"/>
  <path d="M36 29C39.4299 29.0063 42.3486 31.1989 43.4907 34.3323C43.8242 33.6234 44 32.8317 44 32C44 28.134 40.866 25 37 25H28.8475" stroke="white" stroke-width="4" stroke-linecap="round" stroke-linejoin="round"/>
</svg>
